<svg width="26" height="26" viewBox="0 0 26 26" fill="none" xmlns="http://www.w3.org/2000/svg">
<path d="M13.8846 3.86264C14.6644 3.24716 15.8163 3.54603 16.1985 4.46301L16.8907 6.12402C17.0993 6.62435 17.5615 6.97326 18.0999 7.03665L19.887 7.24712C20.8736 7.36331 21.4768 8.38916 21.0987 9.3078L20.4137 10.9718C20.2074 11.4731 20.2875 12.0467 20.6233 12.4722L21.7382 13.8847C22.3537 14.6645 22.0548 15.8164 21.1379 16.1986L19.4768 16.8909C18.9765 17.0994 18.6276 17.5617 18.5642 18.1L18.3537 19.8871C18.2376 20.8738 17.2117 21.4769 16.2931 21.0988L14.629 20.4138C14.1278 20.2075 13.5542 20.2876 13.1287 20.6234L11.7162 21.7383C10.9364 22.3538 9.78448 22.055 9.40229 21.138L8.71 19.477C8.50146 18.9766 8.03921 18.6277 7.50088 18.5643L5.71371 18.3539C4.7271 18.2377 4.12392 17.2118 4.50207 16.2932L5.18706 14.6291C5.39339 14.1279 5.31324 13.5543 4.97742 13.1288L3.86252 11.7163C3.24704 10.9365 3.54591 9.7846 4.46288 9.40241L6.1239 8.71012C6.62423 8.50158 6.97314 8.03933 7.03653 7.501L7.247 5.71384C7.36319 4.72722 8.38904 4.12404 9.30768 4.50219L10.9717 5.18718C11.473 5.39351 12.0465 5.31337 12.472 4.97754L13.8846 3.86264Z" fill="#0B23FF"/>
<path d="M9.27393 12.6L11.7445 15L16.7739 10.5" stroke="white" stroke-width="1.5" stroke-linecap="round"/>
</svg>
