<svg width="28" height="28" viewBox="0 0 28 28" fill="none" xmlns="http://www.w3.org/2000/svg">
<path d="M16.2164 4.75037C16.6489 4.60516 17.1249 4.77115 17.3734 5.15384L18.6883 7.1792C18.8019 7.35415 18.9673 7.4892 19.1615 7.56545L21.4091 8.44822C21.8338 8.61502 22.0917 9.04813 22.0361 9.50099L21.7415 11.8977C21.7161 12.1048 21.756 12.3146 21.8557 12.4978L23.0101 14.6188C23.2282 15.0195 23.1474 15.5171 22.8136 15.8282L21.0474 17.4749C20.8948 17.6171 20.7905 17.8035 20.7492 18.008L20.2701 20.3747C20.1796 20.8219 19.7978 21.1512 19.3422 21.175L16.9307 21.3011C16.7224 21.312 16.5227 21.3877 16.3596 21.5177L14.4713 23.0229C14.1145 23.3072 13.6104 23.3141 13.2461 23.0394L11.3177 21.586C11.1512 21.4604 10.9495 21.3901 10.741 21.3848L8.32697 21.324C7.87085 21.3125 7.48034 20.9938 7.37775 20.5492L6.83483 18.1962C6.78793 17.993 6.67866 17.8095 6.5223 17.6714L4.71214 16.0732C4.37011 15.7712 4.27587 15.276 4.48306 14.8695L5.5796 12.718C5.67432 12.5322 5.70855 12.3214 5.67752 12.1151L5.3182 9.7272C5.25031 9.27601 5.49643 8.83608 5.91645 8.65785L8.13938 7.71458C8.33139 7.63311 8.49312 7.49363 8.60192 7.31568L9.86159 5.25548C10.0996 4.86621 10.5709 4.6874 11.0072 4.82085L13.3164 5.52714C13.5159 5.58815 13.7294 5.58526 13.9272 5.51888L16.2164 4.75037Z" fill="#8C8D00"/>
<path d="M19.0368 6.06988C19.493 6.07527 19.8878 6.38879 19.9963 6.83197L20.5706 9.17746C20.6202 9.38005 20.732 9.56207 20.8902 9.69802L22.7215 11.2719C23.0676 11.5693 23.1684 12.0632 22.9667 12.4725L21.899 14.6384C21.8068 14.8255 21.7754 15.0367 21.8092 15.2426L22.2004 17.6254C22.2743 18.0757 22.0341 18.5189 21.6165 18.7027L19.4064 19.6756C19.2154 19.7596 19.0556 19.9013 18.9492 20.0807L17.7172 22.1575C17.4844 22.5499 17.0155 22.735 16.5774 22.6074L14.259 21.9321C14.0588 21.8737 13.8453 21.8795 13.6485 21.9485L11.3697 22.7476C10.9391 22.8985 10.461 22.7389 10.2074 22.3596L8.86552 20.352C8.74961 20.1786 8.58237 20.0458 8.38723 19.9721L6.12798 19.1195C5.70111 18.9584 5.43741 18.5287 5.487 18.0752L5.74951 15.6747C5.77218 15.4674 5.72945 15.2581 5.6273 15.0763L4.44469 12.9709C4.22124 12.5731 4.29539 12.0745 4.62493 11.7589L6.36901 10.0887C6.51966 9.94449 6.62143 9.75673 6.66007 9.55176L7.10744 7.17878C7.19198 6.73041 7.56928 6.39611 8.02457 6.3662L10.4342 6.20787C10.6423 6.1942 10.8409 6.11578 11.0023 5.98361L12.8703 4.45337C13.2233 4.16423 13.7272 4.15067 14.0952 4.42041L16.0428 5.84798C16.211 5.97129 16.4136 6.0389 16.6222 6.04137L19.0368 6.06988Z" fill="#8C8D00" fill-opacity="0.29"/>
<path fill-rule="evenodd" clip-rule="evenodd" d="M17.7895 10.6263C17.915 10.7518 17.9855 10.9221 17.9855 11.0996C17.9855 11.2772 17.915 11.4474 17.7895 11.573L12.7709 16.5915C12.7046 16.6579 12.6259 16.7105 12.5392 16.7464C12.4526 16.7823 12.3597 16.8008 12.2659 16.8008C12.1721 16.8008 12.0792 16.7823 11.9925 16.7464C11.9059 16.7105 11.8271 16.6579 11.7608 16.5915L9.2674 14.0986C9.20345 14.0368 9.15244 13.9629 9.11735 13.8812C9.08226 13.7995 9.06379 13.7117 9.06301 13.6228C9.06224 13.5339 9.07918 13.4457 9.11285 13.3634C9.14651 13.2811 9.19623 13.2064 9.2591 13.1435C9.32196 13.0806 9.39672 13.0309 9.479 12.9973C9.56129 12.9636 9.64946 12.9467 9.73836 12.9474C9.82726 12.9482 9.91512 12.9667 9.99681 13.0018C10.0785 13.0369 10.1524 13.0879 10.2141 13.1518L12.2657 15.2033L16.8423 10.6263C16.9045 10.564 16.9783 10.5147 17.0596 10.481C17.1408 10.4473 17.2279 10.43 17.3159 10.43C17.4038 10.43 17.4909 10.4473 17.5722 10.481C17.6535 10.5147 17.7273 10.564 17.7895 10.6263Z" fill="white"/>
</svg>
